<?xml version="1.0" standalone="no"?>
<!DOCTYPE svg PUBLIC "-//W3C//DTD SVG 20010904//EN"
 "http://www.w3.org/TR/2001/REC-SVG-20010904/DTD/svg10.dtd">
<svg version="1.0" xmlns="http://www.w3.org/2000/svg"
 width="162.000000pt" height="224.000000pt" viewBox="0 0 162.000000 224.000000"
 preserveAspectRatio="xMidYMid meet">
<metadata>
Created by potrace 1.14, written by Peter Selinger 2001-2017
</metadata>
<g transform="translate(0.000000,224.000000) scale(0.100000,-0.100000)"
fill="#000000" stroke="none">
<path d="M21 2206 c-8 -10 -11 -261 -9 -950 3 -820 5 -938 18 -946 9 -6 184
-10 449 -9 405 1 436 0 448 -17 9 -13 12 -49 9 -137 -5 -124 -2 -147 18 -147
14 1 122 54 141 70 12 10 31 4 99 -30 47 -23 90 -39 96 -35 6 4 10 56 10 135
0 70 3 135 6 144 5 14 27 16 140 16 128 0 134 1 149 23 13 20 15 123 15 783 0
418 -3 771 -8 783 -4 12 -77 92 -162 177 l-154 154 -627 0 c-518 0 -629 -2
-638 -14z m1213 -58 c12 -17 16 -50 16 -138 0 -163 -3 -160 159 -160 91 0 132
-4 139 -13 15 -18 16 -1435 1 -1453 -17 -20 -222 -20 -239 1 -16 19 -5 49 28
77 39 34 75 86 100 145 59 140 -10 320 -155 404 -56 32 -62 34 -163 34 -94 0
-109 -3 -145 -24 -116 -72 -160 -129 -181 -240 -13 -67 -13 -82 2 -145 18 -75
19 -77 84 -146 50 -53 65 -86 49 -106 -16 -19 -838 -21 -857 -2 -9 9 -12 219
-12 882 0 795 1 871 17 888 15 17 46 18 579 18 l563 0 15 -22z m214 -164 c60
-53 32 -81 -68 -72 -71 7 -80 18 -80 97 0 94 13 102 70 47 25 -24 60 -57 78
-72z m-222 -1010 c70 -30 94 -51 136 -117 29 -45 31 -55 31 -135 0 -48 -6
-100 -12 -116 -6 -16 -38 -54 -70 -85 -52 -52 -64 -59 -130 -73 -68 -15 -78
-15 -136 1 -34 10 -70 24 -79 32 -51 43 -81 80 -103 128 -22 46 -25 63 -20
125 3 52 12 83 31 118 27 47 103 118 128 118 7 1 24 7 38 15 40 23 120 18 186
-11z m12 -598 c8 -5 12 -46 12 -142 l0 -134 -27 0 c-14 0 -35 7 -44 16 -28 25
-93 23 -121 -3 -17 -16 -27 -19 -40 -12 -16 9 -18 27 -18 144 0 80 4 135 10
137 20 6 216 2 228 -6z"/>
<path d="M360 1585 c-6 -8 -9 -19 -5 -25 4 -7 154 -10 455 -10 301 0 451 3
455 10 4 6 1 17 -5 25 -11 13 -79 15 -450 15 -371 0 -439 -2 -450 -15z"/>
<path d="M379 1290 c-28 -7 -34 -23 -15 -39 10 -8 93 -12 297 -12 284 1 306 3
296 36 -4 11 -538 24 -578 15z"/>
</g>
</svg>
