<?xml version="1.0" standalone="no"?>
<!DOCTYPE svg PUBLIC "-//W3C//DTD SVG 20010904//EN"
 "http://www.w3.org/TR/2001/REC-SVG-20010904/DTD/svg10.dtd">
<svg version="1.0" xmlns="http://www.w3.org/2000/svg"
 width="217.000000pt" height="171.000000pt" viewBox="0 0 217.000000 171.000000"
 preserveAspectRatio="xMidYMid meet">

<g transform="translate(0.000000,171.000000) scale(0.100000,-0.100000)"
fill="#000000" stroke="none">
<path d="M509 1453 c-31 -4 -56 -24 -185 -153 -81 -82 -154 -161 -161 -175
-13 -25 -6 -33 439 -478 426 -425 490 -487 512 -487 9 0 261 248 621 611 121
122 235 235 254 253 75 69 80 76 66 102 -6 13 -82 92 -168 177 l-156 153 -593
0 c-326 1 -609 -1 -629 -3z m489 -84 c4 -19 -171 -193 -199 -197 -13 -2 -48
26 -115 93 -76 77 -93 99 -84 110 9 11 51 14 203 12 166 -2 192 -4 195 -18z
m620 1 c3 -20 -176 -200 -200 -200 -28 0 -210 184 -202 204 6 15 28 16 203 14
166 -3 196 -5 199 -18z m-1030 -89 c91 -90 117 -123 105 -135 -3 -3 -96 -6
-205 -6 l-198 0 0 24 c0 18 26 50 93 115 50 50 97 91 103 91 7 0 53 -40 102
-89z m619 1 c50 -50 93 -100 97 -115 l6 -27 -205 0 -206 0 6 23 c8 25 184 207
201 207 6 0 51 -40 101 -88z m622 -1 c52 -51 91 -98 93 -112 l3 -24 -203 -3
-203 -2 6 22 c9 28 184 208 202 208 7 0 53 -40 102 -89z m-1067 -200 c17 -6
27 -22 35 -53 6 -23 27 -88 47 -143 20 -55 36 -107 36 -115 0 -8 9 -33 20 -55
11 -22 20 -49 20 -60 0 -11 7 -33 15 -49 8 -15 21 -51 29 -80 8 -28 22 -69 30
-91 19 -51 20 -85 2 -85 -18 0 -716 698 -716 716 0 7 8 15 18 17 33 9 441 7
464 -2z m598 -7 c8 -8 7 -20 -3 -45 -8 -19 -19 -52 -25 -74 -15 -56 -41 -134
-57 -170 -7 -16 -16 -43 -20 -60 -3 -16 -14 -52 -24 -80 -31 -84 -42 -118 -61
-180 -9 -33 -27 -82 -39 -110 -21 -47 -23 -49 -37 -31 -8 11 -14 28 -14 38 0
10 -9 35 -20 55 -11 21 -20 48 -20 60 0 13 -9 40 -20 60 -11 21 -20 48 -20 61
0 12 -8 39 -19 60 -10 20 -21 55 -25 76 -4 21 -13 48 -21 60 -7 12 -16 39 -20
61 -4 22 -11 45 -16 51 -9 11 -49 144 -49 163 0 17 32 19 267 18 154 -1 236
-6 243 -13z m566 2 c18 -14 -2 -36 -340 -375 -197 -197 -364 -357 -371 -355
-16 7 -4 83 18 114 9 14 17 37 17 53 0 15 6 40 14 55 7 15 17 43 21 62 4 19
16 54 26 78 11 23 22 57 26 75 3 17 10 38 16 45 5 7 16 36 23 65 28 111 56
178 78 187 11 5 118 9 237 9 172 1 219 -2 235 -13z"/>
</g>
</svg>
