<?xml version="1.0" standalone="no"?>
<!DOCTYPE svg PUBLIC "-//W3C//DTD SVG 20010904//EN"
 "http://www.w3.org/TR/2001/REC-SVG-20010904/DTD/svg10.dtd">
<svg version="1.0" xmlns="http://www.w3.org/2000/svg"
 width="242.000000pt" height="242.000000pt" viewBox="0 0 242.000000 242.000000"
 preserveAspectRatio="xMidYMid meet">

<g transform="translate(0.000000,242.000000) scale(0.100000,-0.100000)"
fill="#000000" stroke="none">
<path d="M990 2222 c-226 -81 -353 -255 -353 -479 0 -51 5 -98 11 -105 5 -7
13 -29 17 -48 4 -19 16 -47 26 -62 11 -14 19 -31 19 -37 0 -17 122 -137 158
-155 17 -9 32 -21 32 -26 0 -17 -38 -49 -67 -56 -123 -31 -334 -214 -403 -348
-17 -33 -35 -68 -40 -76 -16 -27 -42 -114 -50 -170 -13 -88 -12 -304 2 -318
16 -16 1539 -17 1569 -1 18 9 20 20 18 112 -3 145 -16 263 -33 289 -8 13 -17
38 -21 56 -4 18 -27 70 -53 115 -56 101 -191 238 -276 281 -31 16 -59 33 -62
37 -3 5 -25 14 -50 20 -39 10 -74 39 -74 61 0 4 14 15 31 23 70 37 164 153
203 250 29 73 28 248 -2 328 -72 193 -245 319 -455 332 -60 3 -84 0 -147 -23z
m329 -78 c56 -29 163 -130 187 -176 31 -60 -26 -93 -161 -93 -124 0 -182 25
-301 129 -24 21 -44 44 -44 51 0 6 -9 20 -20 30 -23 20 -26 57 -7 73 18 15 78
20 192 17 86 -3 108 -8 154 -31z m-486 -133 c-1 -32 -8 -41 -67 -102 -48 -50
-61 -33 -26 36 26 53 71 106 84 102 6 -2 10 -19 9 -36z m122 10 c8 -27 104
-113 162 -146 29 -17 84 -34 142 -45 90 -17 97 -17 180 0 85 18 86 18 104 -2
32 -38 16 -188 -30 -280 -32 -64 -125 -155 -196 -191 -42 -21 -74 -28 -143
-33 -157 -11 -250 22 -353 126 -76 75 -110 144 -118 234 l-6 72 81 80 c44 44
87 97 96 119 17 40 53 85 67 85 4 0 10 -9 14 -19z m274 -771 c46 -5 88 -13 95
-19 6 -5 27 -12 46 -16 30 -6 60 -19 126 -54 80 -42 230 -184 264 -249 52
-101 80 -167 80 -189 0 -13 7 -38 16 -54 9 -19 17 -70 21 -134 5 -87 3 -108
-11 -129 l-16 -26 -720 0 c-640 0 -720 2 -734 16 -21 21 -22 181 -1 250 8 27
15 58 15 70 0 12 11 42 25 68 14 26 25 52 25 57 0 5 8 22 18 37 11 15 31 45
45 67 40 60 105 125 171 170 73 50 155 94 179 94 10 1 32 8 50 17 59 31 171
40 306 24z"/>
</g>
</svg>
