<?xml version="1.0" standalone="no"?>
<!DOCTYPE svg PUBLIC "-//W3C//DTD SVG 20010904//EN"
 "http://www.w3.org/TR/2001/REC-SVG-20010904/DTD/svg10.dtd">
<svg version="1.0" xmlns="http://www.w3.org/2000/svg"
 width="162.000000pt" height="224.000000pt" viewBox="0 0 162.000000 224.000000"
 preserveAspectRatio="xMidYMid meet">

<g transform="translate(0.000000,224.000000) scale(0.100000,-0.100000)"
fill="#000000" stroke="none">
<path d="M21 2206 c-8 -10 -11 -261 -9 -950 3 -820 5 -938 18 -946 9 -6 194
-10 452 -10 292 0 439 -3 443 -10 4 -6 6 -66 6 -134 -1 -127 3 -156 23 -156
14 1 122 54 142 71 12 10 29 4 96 -30 44 -23 87 -40 94 -37 11 4 14 35 14 135
0 71 3 136 6 145 5 14 27 16 140 16 128 0 134 1 149 23 13 20 15 123 15 783 0
418 -3 771 -8 783 -4 12 -77 92 -162 177 l-154 154 -627 0 c-518 0 -629 -2
-638 -14z m1213 -58 c12 -17 16 -50 16 -138 0 -164 -4 -160 160 -160 114 0
130 -2 139 -18 13 -25 14 -1418 0 -1443 -9 -17 -22 -19 -118 -19 -83 0 -111 3
-121 15 -16 19 -5 50 26 74 66 52 124 170 127 256 3 105 -78 236 -188 304 -36
22 -51 25 -150 25 -100 1 -114 -1 -150 -23 -116 -72 -160 -129 -181 -240 -13
-67 -13 -82 2 -145 18 -76 18 -75 89 -151 37 -40 45 -55 43 -80 l-3 -30 -407
-3 c-249 -1 -416 2 -432 8 l-26 10 0 871 c0 798 1 874 17 891 15 17 46 18 579
18 l563 0 15 -22z m214 -166 c55 -51 41 -66 -57 -63 -36 1 -71 7 -78 13 -17
14 -17 140 -1 156 10 10 22 2 58 -32 25 -24 60 -58 78 -74z m-222 -1008 c69
-30 94 -51 133 -113 58 -92 49 -224 -20 -316 -23 -30 -46 -55 -52 -55 -6 0
-18 -6 -26 -14 -9 -7 -47 -21 -84 -29 -63 -14 -73 -14 -132 2 -77 22 -145 81
-182 160 -22 46 -25 63 -20 125 3 52 12 83 31 118 27 47 103 118 128 118 7 1
24 7 38 15 40 23 120 18 186 -11z m14 -599 c6 -4 10 -61 10 -141 l0 -134 -27
0 c-14 0 -35 7 -44 16 -28 25 -93 23 -121 -3 -17 -16 -27 -19 -40 -12 -16 9
-18 26 -18 137 0 71 4 132 9 138 11 10 214 9 231 -1z"/>
<path d="M360 1585 c-6 -8 -9 -19 -5 -25 4 -7 154 -10 455 -10 301 0 451 3
455 10 4 6 1 17 -5 25 -11 13 -79 15 -450 15 -371 0 -439 -2 -450 -15z"/>
<path d="M379 1290 c-28 -7 -34 -23 -15 -39 21 -17 576 -16 588 1 22 36 14 37
-272 40 -153 2 -289 1 -301 -2z"/>
</g>
</svg>
