<?xml version="1.0" standalone="no"?>
<!DOCTYPE svg PUBLIC "-//W3C//DTD SVG 20010904//EN"
 "http://www.w3.org/TR/2001/REC-SVG-20010904/DTD/svg10.dtd">
<svg version="1.0" xmlns="http://www.w3.org/2000/svg"
 width="196.000000pt" height="208.000000pt" viewBox="0 0 196.000000 208.000000"
 preserveAspectRatio="xMidYMid meet">

<g transform="translate(0.000000,208.000000) scale(0.100000,-0.100000)"
fill="#000000" stroke="none">
<path d="M815 1982 c-569 -2 -621 -3 -632 -19 -17 -22 -19 -1868 -3 -1878 6
-4 17 -1 25 5 13 10 15 59 15 285 0 252 1 273 19 289 17 15 77 17 712 17 721
1 807 3 816 25 2 7 -63 149 -146 315 -83 167 -151 310 -151 320 0 9 7 22 15
29 8 7 15 18 15 24 0 6 17 45 38 86 151 295 232 462 232 475 0 33 61 32 -955
27z m844 -71 c14 -9 8 -76 -8 -83 -4 -2 -23 -37 -41 -78 -19 -41 -39 -82 -46
-90 -6 -8 -15 -26 -19 -40 -4 -14 -13 -32 -20 -40 -7 -8 -25 -44 -41 -80 -15
-36 -36 -76 -46 -90 -25 -36 -32 -99 -14 -130 8 -14 20 -36 27 -50 6 -14 15
-32 20 -40 5 -8 34 -67 65 -130 31 -63 60 -122 65 -130 5 -8 14 -26 20 -40 6
-14 15 -32 20 -40 5 -8 17 -29 26 -47 34 -66 69 -63 -712 -60 -569 2 -706 5
-719 16 -14 12 -16 71 -16 577 0 526 1 564 18 573 21 13 1401 15 1421 2z"/>
</g>
</svg>
