<?xml version="1.0" standalone="no"?>
<!DOCTYPE svg PUBLIC "-//W3C//DTD SVG 20010904//EN"
 "http://www.w3.org/TR/2001/REC-SVG-20010904/DTD/svg10.dtd">
<svg version="1.0" xmlns="http://www.w3.org/2000/svg"
 width="154.000000pt" height="213.000000pt" viewBox="0 0 154.000000 213.000000"
 preserveAspectRatio="xMidYMid meet">

<g transform="translate(0.000000,213.000000) scale(0.100000,-0.100000)"
fill="#000000" stroke="none">
<path d="M336 1922 c-14 -16 -14 -24 -4 -53 6 -19 19 -45 30 -58 10 -13 18
-29 18 -35 0 -13 40 -94 63 -127 23 -31 21 -94 -3 -148 -11 -24 -20 -55 -20
-70 0 -14 -9 -57 -19 -96 -11 -38 -24 -90 -29 -115 -6 -25 -17 -63 -26 -85 -8
-22 -15 -55 -16 -73 0 -18 -5 -42 -11 -53 -5 -11 -17 -54 -25 -96 -8 -42 -19
-82 -25 -89 -6 -7 -15 -45 -20 -85 -5 -39 -13 -77 -18 -83 -6 -7 -14 -39 -20
-73 -5 -34 -17 -75 -25 -92 -9 -17 -16 -55 -16 -90 l0 -59 56 -39 c31 -21 65
-43 75 -49 10 -6 27 -18 37 -27 10 -10 22 -17 27 -17 5 0 17 -7 27 -17 10 -9
27 -21 37 -27 11 -6 57 -36 103 -67 45 -31 91 -59 101 -62 18 -7 59 5 80 23
14 12 189 129 218 146 10 6 27 18 36 26 10 9 28 19 41 22 12 4 22 11 22 15 0
4 23 23 51 41 l51 33 -7 76 c-4 42 -13 87 -20 101 -7 14 -18 55 -25 90 -6 36
-16 78 -22 93 -22 55 8 56 97 2 47 -28 104 -55 116 -55 16 0 20 48 17 208 -2
132 -6 164 -19 174 -8 7 -23 24 -32 38 -29 43 -88 122 -197 265 -110 144 -134
176 -175 237 -23 34 -23 39 -10 65 8 15 15 33 15 39 0 6 8 22 19 35 10 13 22
35 26 49 4 14 16 36 26 49 11 13 19 31 19 39 0 9 8 24 17 35 17 18 17 20 -6
38 -22 18 -43 19 -321 19 -275 0 -298 -1 -314 -18z m544 -52 c15 -8 18 -15 10
-28 -5 -9 -22 -44 -38 -77 -16 -33 -39 -77 -51 -98 l-23 -38 -132 3 -131 3
-17 34 c-9 19 -22 39 -27 44 -6 6 -11 18 -11 28 0 9 -9 28 -21 43 -12 15 -22
41 -23 59 l-1 32 65 5 c105 9 377 2 400 -10z m-123 -296 c16 -5 26 -18 34 -48
6 -22 17 -57 25 -78 7 -20 16 -60 20 -90 4 -29 13 -65 20 -79 7 -14 17 -54 22
-90 6 -35 17 -82 26 -104 8 -22 15 -53 16 -68 0 -15 6 -40 14 -55 8 -15 17
-50 21 -77 4 -28 15 -76 26 -108 10 -31 19 -71 19 -88 0 -16 7 -44 16 -61 9
-17 20 -62 25 -100 5 -38 15 -79 24 -91 8 -12 15 -26 15 -33 0 -26 -68 -81
-213 -171 -29 -17 -59 -38 -67 -45 -24 -21 -80 -58 -89 -58 -5 0 -20 -9 -34
-20 -30 -24 -20 -28 -165 69 -45 31 -93 63 -106 71 -47 30 -81 55 -86 61 -3 3
-19 13 -36 22 -17 9 -38 27 -47 40 -14 21 -14 29 -2 63 8 21 14 50 15 64 0 14
9 51 20 83 11 31 20 69 20 84 0 16 9 48 20 72 11 24 20 59 20 77 0 19 6 49 13
67 8 18 20 64 27 102 7 39 19 79 25 90 7 11 16 47 20 80 4 33 13 71 20 85 7
14 16 48 20 75 4 28 16 76 26 107 11 32 19 69 19 83 0 14 11 37 25 50 22 23
32 25 117 25 51 0 103 -3 115 -6z m230 -261 c10 -15 44 -61 75 -101 32 -40 58
-77 58 -81 0 -5 10 -20 23 -34 93 -108 97 -119 97 -239 l0 -108 -34 0 c-18 0
-39 7 -46 16 -8 8 -27 21 -44 28 -17 8 -48 29 -69 47 -34 30 -39 42 -51 109
-7 42 -18 84 -23 95 -6 11 -13 43 -17 72 -4 28 -13 64 -21 79 -8 15 -17 53
-21 83 -4 30 -13 70 -21 89 -7 18 -11 37 -8 43 7 11 73 -53 102 -98z"/>
</g>
</svg>
