<?xml version="1.0" standalone="no"?>
<!DOCTYPE svg PUBLIC "-//W3C//DTD SVG 20010904//EN"
 "http://www.w3.org/TR/2001/REC-SVG-20010904/DTD/svg10.dtd">
<svg version="1.0" xmlns="http://www.w3.org/2000/svg"
 width="167.000000pt" height="221.000000pt" viewBox="0 0 167.000000 221.000000"
 preserveAspectRatio="xMidYMid meet">

<g transform="translate(0.000000,221.000000) scale(0.100000,-0.100000)"
fill="#000000" stroke="none">
<path d="M815 2081 c-69 -9 -159 -39 -195 -64 -13 -9 -28 -17 -33 -17 -14 0
-112 -83 -148 -126 -19 -21 -39 -43 -46 -49 -6 -5 -30 -46 -52 -90 -44 -84
-70 -194 -71 -290 0 -105 45 -261 104 -353 28 -46 148 -169 182 -188 18 -10
19 -27 25 -255 5 -236 6 -245 30 -284 36 -59 124 -142 167 -156 20 -7 47 -19
60 -27 28 -18 133 -12 177 12 17 9 36 16 43 16 34 0 115 77 163 155 23 39 24
48 29 278 l5 239 30 25 c42 35 127 118 147 145 37 49 68 99 68 111 0 7 7 22
14 33 8 12 25 70 37 130 21 108 22 110 4 218 -23 139 -75 245 -169 343 -59 62
-189 153 -219 153 -7 0 -28 9 -48 19 -41 22 -208 34 -304 22z m215 -61 c34
-11 70 -20 79 -20 19 -1 94 -37 135 -65 51 -36 165 -154 181 -187 8 -18 19
-40 24 -48 5 -8 19 -42 32 -75 20 -51 23 -79 23 -180 0 -150 -25 -232 -109
-348 -32 -45 -117 -128 -147 -143 -41 -21 -48 -43 -48 -144 0 -88 -1 -91 -26
-100 -38 -15 -517 -13 -532 2 -8 8 -12 47 -12 110 0 85 -3 101 -20 118 -11 11
-25 20 -31 20 -19 0 -144 134 -173 185 -58 104 -71 159 -71 300 0 140 4 158
67 280 33 63 36 68 83 118 81 88 164 136 295 172 106 29 170 31 250 5z m153
-1395 c14 -6 17 -20 17 -85 0 -44 -4 -81 -9 -84 -5 -3 -12 -21 -15 -40 -8 -44
-53 -100 -112 -139 -44 -29 -51 -30 -148 -31 -94 0 -105 2 -135 24 -102 78
-141 146 -148 264 -5 75 -1 84 49 96 40 9 476 5 501 -5z"/>
<path d="M783 1749 c-107 -52 -189 -153 -194 -237 -3 -42 11 -69 29 -58 5 3
20 34 33 68 28 78 69 130 128 166 42 24 55 27 141 27 91 0 97 -1 142 -32 52
-37 108 -100 108 -123 0 -27 45 -105 60 -105 28 0 24 71 -6 128 -35 68 -55 93
-103 128 -105 76 -231 90 -338 38z"/>
</g>
</svg>
